<?xml version="1.0" standalone="no"?>
<!DOCTYPE svg PUBLIC "-//W3C//DTD SVG 20010904//EN"
 "http://www.w3.org/TR/2001/REC-SVG-20010904/DTD/svg10.dtd">
<svg version="1.0" xmlns="http://www.w3.org/2000/svg"
 width="706.000000pt" height="294.000000pt" viewBox="0 0 706.000000 294.000000"
 preserveAspectRatio="xMidYMid meet">

<g transform="translate(0.000000,294.000000) scale(0.100000,-0.100000)"
fill="#000000" stroke="none">
<path d="M3460 2350 l0 -210 -75 0 -75 0 0 -145 0 -144 73 -3 72 -3 5 -290 c5
-271 7 -294 28 -346 28 -70 80 -124 147 -155 84 -39 215 -50 323 -28 22 4 22
7 22 144 l0 140 -65 0 c-38 0 -78 6 -94 15 -50 25 -56 58 -56 300 l0 220 118
3 117 3 0 144 0 145 -120 0 -120 0 0 210 0 210 -150 0 -150 0 0 -210z"/>
<path d="M4110 1800 l0 -760 160 0 160 0 0 158 0 158 43 42 c23 23 45 42 48
42 3 0 75 -90 159 -200 l154 -200 179 0 178 0 -19 27 c-11 16 -115 149 -231
298 -116 148 -211 273 -211 277 0 4 91 112 203 240 111 128 206 239 210 246 7
9 -31 12 -175 11 l-183 0 -175 -206 -175 -207 -3 417 -2 417 -160 0 -160 0 0
-760z"/>
<path d="M6455 2208 c-47 -28 -62 -75 -40 -122 28 -59 109 -72 151 -24 27 29
26 101 -2 128 -25 25 -82 35 -109 18z m92 -30 c48 -45 14 -128 -53 -128 -37 0
-74 38 -74 75 0 64 80 98 127 53z"/>
<path d="M6473 2130 c-1 -25 1 -37 4 -28 2 9 12 19 21 21 16 4 16 5 0 6 -9 0
-19 11 -21 24 -2 12 -4 2 -4 -23z"/>
<path d="M6516 2157 c3 -10 9 -15 12 -12 3 3 0 11 -7 18 -10 9 -11 8 -5 -6z"/>
<path d="M2615 2160 c-191 -26 -351 -140 -429 -303 -43 -91 -56 -154 -56 -271
0 -114 28 -229 73 -304 39 -66 135 -158 204 -195 117 -63 332 -87 468 -52 88
22 198 79 255 133 l51 47 -89 88 -89 89 -61 -40 c-34 -22 -85 -46 -113 -52
-72 -18 -193 -8 -252 20 -73 34 -127 105 -127 166 l0 24 405 0 405 0 6 26 c11
42 -4 186 -26 256 -37 121 -149 257 -256 311 -103 52 -246 74 -369 57z m220
-288 c62 -31 115 -98 115 -143 0 -5 -102 -9 -250 -9 -198 0 -250 3 -250 13 0
23 51 92 85 116 80 54 219 65 300 23z"/>
<path d="M5560 2149 c-90 -15 -196 -73 -270 -148 -109 -110 -160 -243 -160
-416 0 -306 203 -539 491 -562 147 -11 282 29 360 109 31 32 43 39 47 28 11
-34 98 -108 142 -121 49 -14 199 -18 243 -6 l27 7 0 136 0 135 -35 -7 c-47 -8
-81 15 -94 63 -7 23 -11 181 -11 406 l0 367 -155 0 -155 0 0 -66 0 -67 -43 46
c-80 87 -223 122 -387 96z m282 -311 c55 -23 120 -89 143 -145 21 -49 21 -157
0 -206 -75 -179 -323 -228 -460 -92 -77 78 -102 207 -58 305 65 144 225 203
375 138z"/>
<path d="M790 1970 l0 -160 329 0 c372 0 399 -4 475 -72 57 -49 78 -103 78
-196 0 -60 -5 -82 -28 -130 -52 -102 -140 -142 -314 -142 l-90 0 0 -145 0
-145 173 0 c250 0 334 27 452 145 106 106 155 237 155 414 -1 252 -97 434
-278 525 -124 62 -153 66 -574 66 l-378 0 0 -160z"/>
<path d="M904 1651 c-23 -10 -50 -32 -60 -47 -50 -74 -49 -55 -52 -631 l-3
-543 166 0 165 0 0 451 c0 303 4 457 11 471 19 36 70 48 199 48 131 0 162 9
199 56 26 33 28 111 5 155 -27 54 -56 59 -336 59 -225 0 -258 -2 -294 -19z"/>
<path d="M2210 586 c-27 -33 18 -72 48 -42 13 13 14 20 6 34 -15 23 -38 26
-54 8z"/>
<path d="M3383 585 c-12 -9 -25 -31 -29 -50 -4 -25 -11 -35 -25 -35 -14 0 -19
-7 -19 -25 0 -18 5 -25 20 -25 19 0 20 -7 20 -95 l0 -95 30 0 30 0 0 95 c0 88
1 95 20 95 15 0 20 7 20 25 0 19 -5 25 -21 25 -30 0 -22 44 9 48 16 3 22 10
22 28 0 20 -5 24 -28 24 -15 0 -37 -7 -49 -15z"/>
<path d="M1240 530 l-30 -60 30 0 c25 0 32 6 45 37 28 68 30 83 6 83 -15 0
-28 -15 -51 -60z"/>
<path d="M1327 535 c-15 -31 -27 -58 -27 -60 0 -3 13 -5 28 -5 25 0 30 6 50
60 l21 60 -22 0 c-18 0 -29 -13 -50 -55z"/>
<path d="M1640 425 l0 -165 30 0 30 0 0 83 c0 72 3 87 20 102 16 15 26 17 48
9 25 -9 27 -14 32 -85 5 -83 19 -109 56 -109 19 0 24 5 24 25 0 14 -4 25 -10
25 -6 0 -10 28 -10 65 0 35 -5 75 -11 88 -20 44 -85 60 -127 31 -22 -15 -22
-15 -22 40 0 56 0 56 -30 56 l-30 0 0 -165z"/>
<path d="M3690 545 c0 -33 -4 -45 -15 -45 -9 0 -15 -9 -15 -25 0 -16 6 -25 15
-25 12 0 15 -15 15 -75 0 -67 3 -79 25 -100 15 -16 36 -25 55 -25 25 0 30 4
30 24 0 18 -6 25 -22 28 -21 3 -23 9 -26 76 -3 71 -3 72 23 72 20 0 25 5 25
25 0 20 -5 25 -25 25 -23 0 -25 4 -25 45 0 43 -1 45 -30 45 -29 0 -30 -2 -30
-45z"/>
<path d="M3830 425 l0 -165 30 0 30 0 0 83 c0 72 3 87 20 102 16 15 26 17 48
9 25 -9 27 -14 32 -85 5 -83 19 -109 56 -109 19 0 24 5 24 25 0 14 -4 25 -10
25 -6 0 -10 28 -10 65 0 35 -5 75 -11 88 -20 44 -85 60 -127 31 -22 -15 -22
-15 -22 40 0 56 0 56 -30 56 l-30 0 0 -165z"/>
<path d="M4572 439 c3 -145 4 -152 27 -170 34 -28 71 -25 71 5 0 15 -7 26 -20
29 -19 5 -20 14 -20 146 l0 141 -31 0 -30 0 3 -151z"/>
<path d="M5470 534 c0 -55 0 -55 -22 -40 -56 39 -143 1 -166 -72 -36 -110 69
-208 167 -157 26 13 30 13 41 0 7 -8 25 -15 41 -15 24 0 29 4 29 24 0 13 -7
26 -15 30 -12 4 -15 30 -15 146 l0 140 -30 0 c-30 0 -30 0 -30 -56z m-36 -85
c35 -16 52 -61 37 -98 -12 -28 -47 -51 -77 -51 -26 0 -64 47 -64 80 0 19 9 40
25 55 27 28 42 30 79 14z"/>
<path d="M6251 529 l-20 -60 22 3 c15 2 31 20 49 53 15 28 28 53 28 58 0 4
-13 7 -29 7 -27 0 -31 -5 -50 -61z"/>
<path d="M6345 553 c-28 -66 -29 -83 -8 -83 12 0 29 20 51 60 l33 60 -30 0
c-26 0 -33 -6 -46 -37z"/>
<path d="M1453 494 c-97 -49 -88 -201 13 -234 43 -15 99 -7 125 16 18 16 18
19 3 35 -15 16 -19 17 -37 4 -31 -22 -65 -18 -92 10 -66 65 17 173 92 120 18
-13 22 -12 37 4 15 16 15 19 -4 36 -27 25 -97 30 -137 9z"/>
<path d="M1973 494 c-44 -22 -67 -60 -67 -114 0 -54 23 -93 69 -114 64 -31
140 -11 175 46 69 114 -55 242 -177 182z m111 -55 c59 -47 15 -149 -59 -135
-95 19 -81 152 16 155 9 1 28 -8 43 -20z"/>
<path d="M2383 494 c-97 -49 -88 -201 13 -234 43 -15 99 -7 125 16 18 16 18
19 3 35 -15 16 -19 17 -37 4 -31 -22 -65 -18 -92 10 -66 65 17 173 92 120 18
-13 22 -12 37 4 15 16 15 19 -4 36 -27 25 -97 30 -137 9z"/>
<path d="M2619 487 c-49 -32 -67 -88 -48 -147 25 -79 106 -111 185 -74 39 19
41 25 15 48 -16 15 -19 15 -31 1 -19 -23 -73 -19 -98 8 -39 41 -30 47 73 47
89 0 95 1 95 20 0 97 -109 152 -191 97z m116 -47 c10 -11 16 -23 13 -26 -3 -3
-34 -4 -69 -2 l-64 3 23 23 c28 28 73 29 97 2z"/>
<path d="M3093 494 c-44 -22 -67 -60 -67 -114 0 -54 23 -93 69 -114 64 -31
140 -11 175 46 69 114 -55 242 -177 182z m111 -55 c59 -47 15 -149 -59 -135
-95 19 -81 152 16 155 9 1 28 -8 43 -20z"/>
<path d="M4149 487 c-49 -32 -67 -88 -48 -147 25 -79 106 -111 185 -74 39 19
41 25 15 48 -16 15 -19 15 -31 1 -19 -23 -73 -19 -98 8 -39 41 -30 47 73 47
89 0 95 1 95 20 0 97 -109 152 -191 97z m116 -47 c10 -11 16 -23 13 -26 -3 -3
-34 -4 -69 -2 l-64 3 23 23 c28 28 73 29 97 2z"/>
<path d="M4749 487 c-49 -32 -67 -88 -48 -147 25 -79 106 -111 185 -74 39 19
41 25 15 48 -16 15 -19 15 -31 1 -19 -23 -73 -19 -98 8 -39 41 -30 47 73 47
89 0 95 1 95 20 0 97 -109 152 -191 97z m116 -47 c10 -11 16 -23 13 -26 -3 -3
-34 -4 -69 -2 l-64 3 23 23 c28 28 73 29 97 2z"/>
<path d="M5029 487 c-23 -15 -38 -37 -47 -65 -36 -110 69 -208 167 -157 26 13
30 13 41 0 7 -8 25 -15 41 -15 24 0 29 4 29 25 0 16 -6 25 -15 25 -12 0 -15
18 -15 100 l0 100 -30 0 c-16 0 -30 -5 -30 -11 0 -5 -10 -3 -22 5 -32 23 -80
20 -119 -7z m105 -38 c35 -16 52 -61 37 -98 -12 -28 -47 -51 -77 -51 -26 0
-64 47 -64 80 0 19 9 40 25 55 27 28 42 30 79 14z"/>
<path d="M5639 487 c-49 -32 -67 -88 -48 -147 25 -79 106 -111 185 -74 39 19
41 25 15 48 -16 15 -19 15 -31 1 -19 -23 -73 -19 -98 8 -39 41 -30 47 73 47
89 0 95 1 95 20 0 97 -109 152 -191 97z m116 -47 c10 -11 16 -23 13 -26 -3 -3
-34 -4 -69 -2 l-64 3 23 23 c28 28 73 29 97 2z"/>
<path d="M5942 494 c-12 -8 -22 -10 -22 -5 0 6 -13 11 -30 11 l-30 0 0 -120 0
-120 30 0 30 0 0 79 c0 75 2 81 27 101 15 12 35 19 45 17 14 -4 18 1 18 24 0
24 -4 29 -23 29 -12 0 -33 -7 -45 -16z"/>
<path d="M6082 498 c-24 -12 -36 -42 -30 -79 2 -18 18 -31 58 -51 37 -18 55
-33 55 -45 0 -24 -48 -30 -79 -10 -19 13 -25 13 -41 1 -19 -14 -19 -15 3 -37
30 -30 119 -32 151 -3 45 41 17 117 -50 131 -32 7 -54 29 -44 45 8 13 48 13
61 0 7 -7 16 -4 28 9 17 19 17 20 -13 35 -34 18 -66 19 -99 4z"/>
<path d="M2200 403 c0 -117 12 -147 58 -151 28 -3 32 0 32 21 0 14 -7 27 -15
31 -12 4 -15 25 -15 101 l0 95 -30 0 -30 0 0 -97z"/>
</g>
</svg>
